<svg xmlns="http://www.w3.org/2000/svg" width="266.552" height="162.55" viewBox="0 0 266.552 162.55">
  <g id="Grupo_14" data-name="Grupo 14" transform="translate(-75.294 -104)">
    <g id="Grupo_13" data-name="Grupo 13">
      <path id="Caminho_4" data-name="Caminho 4" d="M138.516,169.481l-.707-.04a32.315,32.315,0,0,1-11.22-62.3l.951-.384-.142-1.011a31.269,31.269,0,0,1-.4-4.832,32.267,32.267,0,0,1,40.813-31.191l1.294.364.3-1.314a40.076,40.076,0,0,1,74.027-10.815l.425.748.869-.1a38.33,38.33,0,0,1,5.175-.384,40.087,40.087,0,0,1,39.783,35.3l.081.647.566.323a40.089,40.089,0,0,1-19.73,75Z" transform="translate(25 67.775)" fill="#fff"/>
      <path id="Caminho_5" data-name="Caminho 5" d="M208.5,38.813a38.9,38.9,0,0,1,33.8,19.77l.849,1.516,1.739-.222a39.237,39.237,0,0,1,5.013-.364,38.8,38.8,0,0,1,38.509,34.163l.142,1.294,1.152.647a38.795,38.795,0,0,1-19.1,72.571H139.527l-1.678-.04a31.025,31.025,0,0,1-10.774-59.816l1.9-.768-.3-2.021a30.718,30.718,0,0,1-.384-4.63,31.084,31.084,0,0,1,31.05-31.049,31.588,31.588,0,0,1,8.126,1.112l2.608.708.606-2.628A38.564,38.564,0,0,1,208.5,38.813Zm0-2.588a41.38,41.38,0,0,0-40.349,32.263A33.516,33.516,0,0,0,125.7,100.912a34.092,34.092,0,0,0,.4,5.014,33.618,33.618,0,0,0,11.664,64.809v.04H270.6a41.39,41.39,0,0,0,20.377-77.423A41.387,41.387,0,0,0,249.9,56.925a42.562,42.562,0,0,0-5.357.384A41.338,41.338,0,0,0,208.5,36.225Z" transform="translate(28 67.775)" fill="#2f8a90"/>
      <path id="Caminho_6" data-name="Caminho 6" d="M82.516,197.481l-.708-.04a32.315,32.315,0,0,1-11.219-62.3l.95-.384-.141-1.011a31.272,31.272,0,0,1-.4-4.832,32.267,32.267,0,0,1,40.813-31.191l1.294.364.3-1.314a40.076,40.076,0,0,1,74.027-10.815l.425.748.869-.1a38.329,38.329,0,0,1,5.175-.384,40.087,40.087,0,0,1,39.783,35.3l.081.647.566.323a40.089,40.089,0,0,1-19.73,75Z" transform="translate(25 67.775)" fill="#fff"/>
      <path id="Caminho_7" data-name="Caminho 7" d="M152.5,66.813a38.9,38.9,0,0,1,33.8,19.77l.849,1.516,1.739-.222a39.237,39.237,0,0,1,5.013-.364,38.8,38.8,0,0,1,38.509,34.164l.142,1.293,1.152.647a38.8,38.8,0,0,1-19.1,72.571H83.527l-1.678-.04a31.025,31.025,0,0,1-10.774-59.816l1.9-.768-.3-2.021a30.745,30.745,0,0,1-.384-4.63,31.084,31.084,0,0,1,31.05-31.049,31.588,31.588,0,0,1,8.126,1.112l2.608.708.606-2.628A38.564,38.564,0,0,1,152.5,66.813Zm0-2.588a41.38,41.38,0,0,0-40.349,32.263A33.516,33.516,0,0,0,69.7,128.912a34.009,34.009,0,0,0,.4,5.014,33.618,33.618,0,0,0,11.664,64.809v.04H214.6a41.391,41.391,0,0,0,20.377-77.423A41.387,41.387,0,0,0,193.9,84.925a42.563,42.563,0,0,0-5.357.384A41.338,41.338,0,0,0,152.5,64.225Z" transform="translate(28 67.775)" fill="#218289"/>
      <path id="Caminho_8" data-name="Caminho 8" d="M53.138,148.952H68.1q9.588,0,15.776,3.74a21.965,21.965,0,0,1,8.976,9.588,28.285,28.285,0,0,1,2.856,12.58,23.711,23.711,0,0,1-3.4,12.716,23.033,23.033,0,0,1-9.18,8.5A27.2,27.2,0,0,1,70.546,199H53.138ZM68.846,189.48q7.684,0,12.172-3.944t4.488-11.356q0-5.983-2.516-9.52a13.109,13.109,0,0,0-5.78-4.9,16.1,16.1,0,0,0-6.188-1.36H63V189.48ZM132.6,199l-10.54-15.912h-6.6V199H105.6V148.952h15.164q9.315,0,14.416,4.556,5.167,4.488,5.168,12.308a19.752,19.752,0,0,1-1.972,8.7,14.223,14.223,0,0,1-5.916,6.324L144.087,199Zm-17.136-25.432h7q4.011,0,5.848-2.312a8.2,8.2,0,0,0,1.836-5.1,9.451,9.451,0,0,0-1.564-5.168q-1.564-2.516-6.052-2.516h-7.072Zm31.97.476a25.106,25.106,0,0,1,3.4-12.716,26.041,26.041,0,0,1,9.316-9.384,24.485,24.485,0,0,1,12.784-3.536,24.129,24.129,0,0,1,12.716,3.536,25.869,25.869,0,0,1,9.384,9.384,24.755,24.755,0,0,1,0,25.5,26.034,26.034,0,0,1-9.384,9.316,25.606,25.606,0,0,1-25.5,0,26.208,26.208,0,0,1-9.316-9.316A24.992,24.992,0,0,1,147.429,174.044Zm10.2,0a15.994,15.994,0,0,0,7.684,13.872,15.476,15.476,0,0,0,7.956,2.108,14.509,14.509,0,0,0,7.684-2.108,15.485,15.485,0,0,0,5.44-5.78,16.825,16.825,0,0,0,1.972-8.092,16.516,16.516,0,0,0-2.04-8.16,15.176,15.176,0,0,0-5.576-5.78A14.283,14.283,0,0,0,173,157.928a14.628,14.628,0,0,0-7.82,2.176,15.347,15.347,0,0,0-5.508,5.78A16.516,16.516,0,0,0,157.629,174.044Zm47.707,0a25.1,25.1,0,0,1,3.4-12.716,26.034,26.034,0,0,1,9.316-9.384,24.483,24.483,0,0,1,12.784-3.536,24.134,24.134,0,0,1,12.716,3.536,25.869,25.869,0,0,1,9.384,9.384,24.755,24.755,0,0,1,0,25.5,26.034,26.034,0,0,1-9.384,9.316,25.606,25.606,0,0,1-25.5,0,26.2,26.2,0,0,1-9.316-9.316A24.982,24.982,0,0,1,205.336,174.044Zm10.2,0a15.994,15.994,0,0,0,7.684,13.872,15.47,15.47,0,0,0,7.956,2.108,14.512,14.512,0,0,0,7.684-2.108,15.493,15.493,0,0,0,5.44-5.78,16.836,16.836,0,0,0,1.972-8.092,16.516,16.516,0,0,0-2.04-8.16,15.183,15.183,0,0,0-5.576-5.78,14.283,14.283,0,0,0-7.752-2.176,14.625,14.625,0,0,0-7.82,2.176,15.347,15.347,0,0,0-5.508,5.78A16.516,16.516,0,0,0,215.536,174.044Zm102.31-27.132V199h-9.86V175.132l-16.32,23.188h-.136l-15.708-21.692V199H266.3V146.912h.068l25.364,35.972,25.976-35.972Z" transform="translate(24 63.775)" fill="#9b51e0"/>
    </g>
  </g>
</svg>
